<svg width="25" height="25" viewBox="0 0 25 25" fill="none" xmlns="http://www.w3.org/2000/svg">
<path d="M21.875 0.208221C22.6042 0.208221 23.224 0.46343 23.7344 0.973846C24.2448 1.48426 24.5 2.10405 24.5 2.83322V22.0832C24.5 22.8124 24.2448 23.4322 23.7344 23.9426C23.224 24.453 22.6042 24.7082 21.875 24.7082H2.625C1.89583 24.7082 1.27604 24.453 0.765625 23.9426C0.255208 23.4322 0 22.8124 0 22.0832V2.83322C0 2.10405 0.255208 1.48426 0.765625 0.973846C1.27604 0.46343 1.89583 0.208221 2.625 0.208221H21.875ZM19.1953 8.90353C19.888 8.39312 20.4896 7.77333 21 7.04416C20.3073 7.33583 19.6146 7.51812 18.9219 7.59103C19.6875 7.11708 20.2161 6.46083 20.5078 5.62228C19.7786 6.05978 19.013 6.35145 18.2109 6.49728C17.5182 5.73166 16.6615 5.34885 15.6406 5.34885C14.5104 5.34885 13.5807 5.78635 12.8516 6.66135C12.1224 7.53635 11.8854 8.57541 12.1406 9.77853C9.11458 9.59624 6.63542 8.33843 4.70312 6.0051C4.375 6.55197 4.21094 7.15353 4.21094 7.80978C4.21094 8.17437 4.28385 8.55718 4.42969 8.95822C4.57552 9.3228 4.77604 9.66916 5.03125 9.99728C5.28646 10.3254 5.5599 10.5988 5.85156 10.8176C5.26823 10.7811 4.72135 10.6171 4.21094 10.3254V10.3801C4.21094 11.2551 4.48438 12.0207 5.03125 12.677C5.57812 13.3332 6.27083 13.7525 7.10938 13.9348C6.59896 14.0442 6.05208 14.0624 5.46875 13.9895C5.6875 14.7186 6.10677 15.3202 6.72656 15.7942C7.34635 16.2317 8.03906 16.4504 8.80469 16.4504C7.49219 17.4712 6.01562 17.9817 4.375 17.9817C4.04688 17.9817 3.75521 17.9634 3.5 17.927C5.17708 19.0207 7.01823 19.5676 9.02344 19.5676C11.1016 19.5676 12.9427 19.039 14.5469 17.9817C16.151 16.9244 17.3177 15.6301 18.0469 14.0988C18.8125 12.5676 19.1953 10.9817 19.1953 9.34103C19.1953 9.15874 19.1953 9.01291 19.1953 8.90353Z" fill="white"/>
</svg>
