<svg width="25" height="25" viewBox="0 0 25 25" fill="none" xmlns="http://www.w3.org/2000/svg">
<path d="M21.875 0.25C22.6042 0.25 23.224 0.505208 23.7344 1.01562C24.2448 1.52604 24.5 2.14583 24.5 2.875V22.125C24.5 22.8542 24.2448 23.474 23.7344 23.9844C23.224 24.4948 22.6042 24.75 21.875 24.75H2.625C1.89583 24.75 1.27604 24.4948 0.765625 23.9844C0.255208 23.474 0 22.8542 0 22.125V2.875C0 2.14583 0.255208 1.52604 0.765625 1.01562C1.27604 0.505208 1.89583 0.25 2.625 0.25H21.875ZM15.1484 21.25C16.9714 20.6302 18.4297 19.5365 19.5234 17.9688C20.6536 16.3646 21.2188 14.5599 21.2188 12.5547C21.2188 10.0755 20.3255 7.9974 18.5391 6.32031C16.7891 4.60677 14.6562 3.75 12.1406 3.75C9.625 3.75 7.51042 4.60677 5.79688 6.32031C4.11979 7.9974 3.28125 10.0755 3.28125 12.5547C3.28125 14.5599 3.84635 16.3646 4.97656 17.9688C6.10677 19.5365 7.58333 20.6302 9.40625 21.25C9.84375 21.3229 10.0625 21.1771 10.0625 20.8125C10.0625 20.776 10.0443 20.4661 10.0078 19.8828C10.0078 19.2995 10.0078 18.862 10.0078 18.5703C9.9349 18.6068 9.84375 18.6432 9.73438 18.6797C9.625 18.6797 9.40625 18.6797 9.07812 18.6797C8.78646 18.6797 8.51302 18.6615 8.25781 18.625C8.0026 18.5521 7.7474 18.4245 7.49219 18.2422C7.23698 18.0599 7.05469 17.8047 6.94531 17.4766C6.6901 16.7839 6.36198 16.3464 5.96094 16.1641C5.96094 16.1641 5.83333 16.0365 5.57812 15.7812C5.57812 15.6719 5.72396 15.6172 6.01562 15.6172C6.59896 15.6536 7.05469 15.9635 7.38281 16.5469C8.0026 17.6042 8.89583 17.8594 10.0625 17.3125C10.1354 16.7656 10.3177 16.3646 10.6094 16.1094C9.95312 16.0365 9.44271 15.9635 9.07812 15.8906C8.71354 15.7812 8.29427 15.599 7.82031 15.3438C7.38281 15.0885 7.05469 14.6875 6.83594 14.1406C6.65365 13.5938 6.5625 12.9193 6.5625 12.1172C6.5625 11.3151 6.85417 10.6042 7.4375 9.98438C7.10938 9.25521 7.1276 8.4349 7.49219 7.52344C7.71094 7.45052 8.02083 7.50521 8.42188 7.6875C8.85938 7.83333 9.24219 7.9974 9.57031 8.17969L10.0078 8.45312C10.737 8.27083 11.4844 8.17969 12.25 8.17969C13.0521 8.17969 13.8177 8.27083 14.5469 8.45312C14.6927 8.38021 14.8568 8.28906 15.0391 8.17969C15.2578 8.03385 15.5859 7.86979 16.0234 7.6875C16.4974 7.50521 16.8438 7.45052 17.0625 7.52344C17.4271 8.39844 17.4635 9.21875 17.1719 9.98438C17.7917 10.6406 18.1016 11.3516 18.1016 12.1172C18.1016 12.9193 17.9922 13.5938 17.7734 14.1406C17.5547 14.6875 17.2083 15.0885 16.7344 15.3438C16.2604 15.599 15.8411 15.7812 15.4766 15.8906C15.112 15.9635 14.6016 16.0365 13.9453 16.1094C14.3464 16.4375 14.5469 16.9844 14.5469 17.75C14.5469 18.2604 14.5469 18.8984 14.5469 19.6641C14.5469 20.3932 14.5469 20.776 14.5469 20.8125C14.5469 21.1771 14.7474 21.3229 15.1484 21.25ZM9.95312 17.75C9.98958 17.8229 9.9349 17.8776 9.78906 17.9141C9.67969 17.9141 9.60677 17.8776 9.57031 17.8047C9.57031 17.6953 9.625 17.6406 9.73438 17.6406C9.88021 17.6042 9.95312 17.6406 9.95312 17.75ZM9.29688 17.8594C9.29688 17.75 9.22396 17.6953 9.07812 17.6953C8.93229 17.6953 8.85938 17.75 8.85938 17.8594C8.85938 17.9323 8.93229 17.9688 9.07812 17.9688C9.22396 17.9688 9.29688 17.9323 9.29688 17.8594ZM8.36719 17.5859C8.51302 17.6224 8.56771 17.6953 8.53125 17.8047C8.49479 17.8776 8.42188 17.8958 8.3125 17.8594C8.16667 17.8229 8.11198 17.7682 8.14844 17.6953C8.1849 17.5859 8.25781 17.5495 8.36719 17.5859ZM7.875 17.4766C7.91146 17.4401 7.875 17.3672 7.76562 17.2578C7.69271 17.1484 7.61979 17.1302 7.54688 17.2031C7.51042 17.276 7.52865 17.3672 7.60156 17.4766C7.71094 17.5495 7.80208 17.5495 7.875 17.4766ZM7.38281 16.9844C7.45573 16.9479 7.45573 16.875 7.38281 16.7656C7.3099 16.6562 7.23698 16.638 7.16406 16.7109C7.09115 16.7474 7.09115 16.8203 7.16406 16.9297C7.23698 17.0026 7.3099 17.0208 7.38281 16.9844ZM6.83594 16.4375C6.90885 16.5104 6.96354 16.5286 7 16.4922C7.07292 16.4193 7.07292 16.3464 7 16.2734C6.92708 16.2005 6.85417 16.2005 6.78125 16.2734C6.74479 16.3099 6.76302 16.3646 6.83594 16.4375ZM6.61719 16.0547C6.65365 16.0182 6.63542 15.9635 6.5625 15.8906C6.48958 15.8906 6.4349 15.9089 6.39844 15.9453C6.36198 15.9818 6.39844 16.0182 6.50781 16.0547C6.58073 16.1276 6.61719 16.1276 6.61719 16.0547Z" fill="white"/>
</svg>
