<svg width="25" height="25" viewBox="0 0 25 25" fill="none" xmlns="http://www.w3.org/2000/svg">
<path d="M22.75 0.405046C23.224 0.405046 23.625 0.587338 23.9531 0.951921C24.3177 1.28005 24.5 1.68109 24.5 2.15505V23.155C24.5 23.629 24.3177 24.03 23.9531 24.3582C23.625 24.7228 23.224 24.905 22.75 24.905H1.75C1.27604 24.905 0.856771 24.7228 0.492188 24.3582C0.164062 24.03 0 23.629 0 23.155V2.15505C0 1.68109 0.164062 1.28005 0.492188 0.951921C0.856771 0.587338 1.27604 0.405046 1.75 0.405046H22.75ZM7.38281 21.405H7.4375V9.70192H3.77344V21.405H7.38281ZM4.10156 7.51442C4.5026 7.91546 4.99479 8.11598 5.57812 8.11598C6.16146 8.11598 6.65365 7.91546 7.05469 7.51442C7.49219 7.07692 7.71094 6.58473 7.71094 6.03786C7.71094 5.45453 7.49219 4.96234 7.05469 4.5613C6.65365 4.1238 6.16146 3.90505 5.57812 3.90505C4.99479 3.90505 4.5026 4.1238 4.10156 4.5613C3.70052 4.96234 3.5 5.45453 3.5 6.03786C3.5 6.58473 3.70052 7.07692 4.10156 7.51442ZM21 21.405V15.0066C21 14.1316 20.9453 13.3842 20.8359 12.7644C20.7266 12.1446 20.526 11.5795 20.2344 11.0691C19.9427 10.5222 19.487 10.1212 18.8672 9.86598C18.2839 9.57432 17.5547 9.42848 16.6797 9.42848C15.8411 9.42848 15.112 9.61078 14.4922 9.97536C13.9089 10.3399 13.4896 10.7774 13.2344 11.2879H13.1797V9.70192H9.67969V21.405H13.3438V15.6082C13.3438 14.6967 13.4896 13.9675 13.7812 13.4207C14.0729 12.8738 14.638 12.6004 15.4766 12.6004C15.9141 12.6004 16.2786 12.6915 16.5703 12.8738C16.862 13.0561 17.0443 13.3295 17.1172 13.6941C17.2266 14.0587 17.2995 14.3868 17.3359 14.6785C17.3724 14.9337 17.3906 15.28 17.3906 15.7175V21.405H21Z" fill="white"/>
</svg>
